<svg id="visual" viewBox="0 0 900 600" width="900" height="600" xmlns="http://www.w3.org/2000/svg" xmlns:xlink="http://www.w3.org/1999/xlink" version="1.1"><path d="M0 452L16.7 460.3C33.3 468.7 66.7 485.3 100 493.7C133.3 502 166.7 502 200 495.7C233.3 489.3 266.7 476.7 300 474.2C333.3 471.7 366.7 479.3 400 482.2C433.3 485 466.7 483 500 477.2C533.3 471.3 566.7 461.7 600 462.3C633.3 463 666.7 474 700 482C733.3 490 766.7 495 800 493.2C833.3 491.3 866.7 482.7 883.3 478.3L900 474L900 601L883.3 601C866.7 601 833.3 601 800 601C766.7 601 733.3 601 700 601C666.7 601 633.3 601 600 601C566.7 601 533.3 601 500 601C466.7 601 433.3 601 400 601C366.7 601 333.3 601 300 601C266.7 601 233.3 601 200 601C166.7 601 133.3 601 100 601C66.7 601 33.3 601 16.7 601L0 601Z" fill="#52b5e3"></path><path d="M0 478L16.7 483.2C33.3 488.3 66.7 498.7 100 506.5C133.3 514.3 166.7 519.7 200 514.5C233.3 509.3 266.7 493.7 300 493.7C333.3 493.7 366.7 509.3 400 517C433.3 524.7 466.7 524.3 500 523.7C533.3 523 566.7 522 600 515.3C633.3 508.7 666.7 496.3 700 495.3C733.3 494.3 766.7 504.7 800 510.5C833.3 516.3 866.7 517.7 883.3 518.3L900 519L900 601L883.3 601C866.7 601 833.3 601 800 601C766.7 601 733.3 601 700 601C666.7 601 633.3 601 600 601C566.7 601 533.3 601 500 601C466.7 601 433.3 601 400 601C366.7 601 333.3 601 300 601C266.7 601 233.3 601 200 601C166.7 601 133.3 601 100 601C66.7 601 33.3 601 16.7 601L0 601Z" fill="#4097c2"></path><path d="M0 528L16.7 526.3C33.3 524.7 66.7 521.3 100 520.8C133.3 520.3 166.7 522.7 200 522.7C233.3 522.7 266.7 520.3 300 519.5C333.3 518.7 366.7 519.3 400 519C433.3 518.7 466.7 517.3 500 519.3C533.3 521.3 566.7 526.7 600 530.8C633.3 535 666.7 538 700 533.5C733.3 529 766.7 517 800 513.8C833.3 510.7 866.7 516.3 883.3 519.2L900 522L900 601L883.3 601C866.7 601 833.3 601 800 601C766.7 601 733.3 601 700 601C666.7 601 633.3 601 600 601C566.7 601 533.3 601 500 601C466.7 601 433.3 601 400 601C366.7 601 333.3 601 300 601C266.7 601 233.3 601 200 601C166.7 601 133.3 601 100 601C66.7 601 33.3 601 16.7 601L0 601Z" fill="#2e7ba1"></path><path d="M0 544L16.7 543C33.3 542 66.7 540 100 539.8C133.3 539.7 166.7 541.3 200 540C233.3 538.7 266.7 534.3 300 533.7C333.3 533 366.7 536 400 541.8C433.3 547.7 466.7 556.3 500 556.5C533.3 556.7 566.7 548.3 600 544.8C633.3 541.3 666.7 542.7 700 541.7C733.3 540.7 766.7 537.3 800 536.5C833.3 535.7 866.7 537.3 883.3 538.2L900 539L900 601L883.3 601C866.7 601 833.3 601 800 601C766.7 601 733.3 601 700 601C666.7 601 633.3 601 600 601C566.7 601 533.3 601 500 601C466.7 601 433.3 601 400 601C366.7 601 333.3 601 300 601C266.7 601 233.3 601 200 601C166.7 601 133.3 601 100 601C66.7 601 33.3 601 16.7 601L0 601Z" fill="#1c6081"></path><path d="M0 568L16.7 566.2C33.3 564.3 66.7 560.7 100 561.2C133.3 561.7 166.7 566.3 200 570.8C233.3 575.3 266.7 579.7 300 578.2C333.3 576.7 366.7 569.3 400 566.8C433.3 564.3 466.7 566.7 500 565.3C533.3 564 566.7 559 600 557.8C633.3 556.7 666.7 559.3 700 561C733.3 562.7 766.7 563.3 800 565.8C833.3 568.3 866.7 572.7 883.3 574.8L900 577L900 601L883.3 601C866.7 601 833.3 601 800 601C766.7 601 733.3 601 700 601C666.7 601 633.3 601 600 601C566.7 601 533.3 601 500 601C466.7 601 433.3 601 400 601C366.7 601 333.3 601 300 601C266.7 601 233.3 601 200 601C166.7 601 133.3 601 100 601C66.7 601 33.3 601 16.7 601L0 601Z" fill="#064663"></path></svg>